<mxfile host="app.diagrams.net" modified="2021-07-07T17:54:55.362Z" agent="5.0 (Windows NT 10.0; Win64; x64) AppleWebKit/537.36 (KHTML, like Gecko) Chrome/91.0.4472.124 Safari/537.36" etag="y5OREg2DMud6K_69xRCE" version="14.8.4" type="github">
  <diagram id="mc9bEOhCHve-xe_KJzGz" name="Page-1">
    <mxGraphModel dx="1038" dy="547" grid="1" gridSize="10" guides="1" tooltips="1" connect="1" arrows="1" fold="1" page="1" pageScale="1" pageWidth="827" pageHeight="1169" math="0" shadow="0">
      <root>
        <mxCell id="0" />
        <mxCell id="1" parent="0" />
        <mxCell id="wfwWM39-e0iDr0dvzlDB-10" value="" style="rounded=0;whiteSpace=wrap;html=1;" vertex="1" parent="1">
          <mxGeometry x="40" y="40" width="760" height="520" as="geometry" />
        </mxCell>
        <mxCell id="wfwWM39-e0iDr0dvzlDB-12" value="Master Node&amp;nbsp;" style="rounded=1;whiteSpace=wrap;html=1;fillColor=#ffe6cc;strokeColor=#d79b00;" vertex="1" parent="1">
          <mxGeometry x="70" y="110" width="200" height="40" as="geometry" />
        </mxCell>
        <mxCell id="wfwWM39-e0iDr0dvzlDB-16" value="" style="whiteSpace=wrap;html=1;aspect=fixed;" vertex="1" parent="1">
          <mxGeometry x="70" y="160" width="350" height="350" as="geometry" />
        </mxCell>
        <mxCell id="wfwWM39-e0iDr0dvzlDB-17" value="Controller (Brain of Kubernetes)" style="rounded=0;whiteSpace=wrap;html=1;fillColor=#d5e8d4;strokeColor=#82b366;" vertex="1" parent="1">
          <mxGeometry x="80" y="390" width="110" height="90" as="geometry" />
        </mxCell>
        <mxCell id="wfwWM39-e0iDr0dvzlDB-18" value="ETCD (Key Value Store)&amp;nbsp;" style="rounded=0;whiteSpace=wrap;html=1;fillColor=#f8cecc;strokeColor=#b85450;" vertex="1" parent="1">
          <mxGeometry x="90" y="240" width="110" height="90" as="geometry" />
        </mxCell>
        <mxCell id="wfwWM39-e0iDr0dvzlDB-19" value="Scheduler (Disturbed works with Containers&amp;nbsp; )&amp;nbsp;" style="rounded=0;whiteSpace=wrap;html=1;fillColor=#e1d5e7;strokeColor=#9673a6;" vertex="1" parent="1">
          <mxGeometry x="250" y="390" width="100" height="90" as="geometry" />
        </mxCell>
        <mxCell id="wfwWM39-e0iDr0dvzlDB-55" style="edgeStyle=orthogonalEdgeStyle;rounded=0;orthogonalLoop=1;jettySize=auto;html=1;" edge="1" parent="1" source="wfwWM39-e0iDr0dvzlDB-20">
          <mxGeometry relative="1" as="geometry">
            <mxPoint x="480" y="180" as="targetPoint" />
            <Array as="points">
              <mxPoint x="460" y="210" />
              <mxPoint x="460" y="210" />
            </Array>
          </mxGeometry>
        </mxCell>
        <mxCell id="wfwWM39-e0iDr0dvzlDB-56" style="edgeStyle=orthogonalEdgeStyle;rounded=0;orthogonalLoop=1;jettySize=auto;html=1;entryX=0.396;entryY=-0.007;entryDx=0;entryDy=0;entryPerimeter=0;" edge="1" parent="1" source="wfwWM39-e0iDr0dvzlDB-20" target="wfwWM39-e0iDr0dvzlDB-19">
          <mxGeometry relative="1" as="geometry" />
        </mxCell>
        <mxCell id="wfwWM39-e0iDr0dvzlDB-57" style="edgeStyle=orthogonalEdgeStyle;rounded=0;orthogonalLoop=1;jettySize=auto;html=1;entryX=1;entryY=0.5;entryDx=0;entryDy=0;" edge="1" parent="1" source="wfwWM39-e0iDr0dvzlDB-20" target="wfwWM39-e0iDr0dvzlDB-18">
          <mxGeometry relative="1" as="geometry" />
        </mxCell>
        <mxCell id="wfwWM39-e0iDr0dvzlDB-90" style="edgeStyle=orthogonalEdgeStyle;rounded=0;orthogonalLoop=1;jettySize=auto;html=1;entryX=0.669;entryY=0.011;entryDx=0;entryDy=0;entryPerimeter=0;" edge="1" parent="1" source="wfwWM39-e0iDr0dvzlDB-20" target="wfwWM39-e0iDr0dvzlDB-17">
          <mxGeometry relative="1" as="geometry">
            <Array as="points">
              <mxPoint x="220" y="235" />
              <mxPoint x="220" y="331" />
            </Array>
          </mxGeometry>
        </mxCell>
        <mxCell id="wfwWM39-e0iDr0dvzlDB-20" value="Kube API&amp;nbsp; Server" style="rounded=0;whiteSpace=wrap;html=1;fillColor=#dae8fc;strokeColor=#6c8ebf;" vertex="1" parent="1">
          <mxGeometry x="270" y="220" width="100" height="90" as="geometry" />
        </mxCell>
        <mxCell id="wfwWM39-e0iDr0dvzlDB-21" value="" style="rounded=0;whiteSpace=wrap;html=1;" vertex="1" parent="1">
          <mxGeometry x="440" y="100" width="160" height="180" as="geometry" />
        </mxCell>
        <mxCell id="wfwWM39-e0iDr0dvzlDB-22" value="" style="rounded=0;whiteSpace=wrap;html=1;" vertex="1" parent="1">
          <mxGeometry x="630" y="310" width="150" height="180" as="geometry" />
        </mxCell>
        <mxCell id="wfwWM39-e0iDr0dvzlDB-23" value="" style="rounded=0;whiteSpace=wrap;html=1;" vertex="1" parent="1">
          <mxGeometry x="440" y="310" width="160" height="180" as="geometry" />
        </mxCell>
        <mxCell id="wfwWM39-e0iDr0dvzlDB-24" value="" style="rounded=0;whiteSpace=wrap;html=1;" vertex="1" parent="1">
          <mxGeometry x="620" y="100" width="150" height="180" as="geometry" />
        </mxCell>
        <mxCell id="wfwWM39-e0iDr0dvzlDB-26" value="Worker Nodes&amp;nbsp;" style="rounded=1;whiteSpace=wrap;html=1;fillColor=#dae8fc;strokeColor=#6c8ebf;" vertex="1" parent="1">
          <mxGeometry x="480" y="60" width="260" height="30" as="geometry" />
        </mxCell>
        <mxCell id="wfwWM39-e0iDr0dvzlDB-27" value="Node -1" style="rounded=0;whiteSpace=wrap;html=1;fillColor=#1ba1e2;strokeColor=#006EAF;fontColor=#ffffff;" vertex="1" parent="1">
          <mxGeometry x="450" y="250" width="70" height="20" as="geometry" />
        </mxCell>
        <mxCell id="wfwWM39-e0iDr0dvzlDB-28" value="Node -4" style="rounded=0;whiteSpace=wrap;html=1;fillColor=#1ba1e2;strokeColor=#006EAF;fontColor=#ffffff;" vertex="1" parent="1">
          <mxGeometry x="640" y="460" width="70" height="20" as="geometry" />
        </mxCell>
        <mxCell id="wfwWM39-e0iDr0dvzlDB-29" value="Node -3&amp;nbsp;" style="rounded=0;whiteSpace=wrap;html=1;fillColor=#1ba1e2;strokeColor=#006EAF;fontColor=#ffffff;" vertex="1" parent="1">
          <mxGeometry x="450" y="460" width="70" height="20" as="geometry" />
        </mxCell>
        <mxCell id="wfwWM39-e0iDr0dvzlDB-30" value="Node -2" style="rounded=0;whiteSpace=wrap;html=1;fillColor=#1ba1e2;strokeColor=#006EAF;fontColor=#ffffff;" vertex="1" parent="1">
          <mxGeometry x="630" y="250" width="70" height="20" as="geometry" />
        </mxCell>
        <mxCell id="wfwWM39-e0iDr0dvzlDB-31" style="edgeStyle=orthogonalEdgeStyle;rounded=0;orthogonalLoop=1;jettySize=auto;html=1;exitX=0.25;exitY=1;exitDx=0;exitDy=0;entryX=0.36;entryY=0.81;entryDx=0;entryDy=0;entryPerimeter=0;" edge="1" parent="1" source="wfwWM39-e0iDr0dvzlDB-29" target="wfwWM39-e0iDr0dvzlDB-29">
          <mxGeometry relative="1" as="geometry" />
        </mxCell>
        <mxCell id="wfwWM39-e0iDr0dvzlDB-52" style="edgeStyle=orthogonalEdgeStyle;rounded=0;orthogonalLoop=1;jettySize=auto;html=1;exitX=0;exitY=0.75;exitDx=0;exitDy=0;" edge="1" parent="1" source="wfwWM39-e0iDr0dvzlDB-36" target="wfwWM39-e0iDr0dvzlDB-20">
          <mxGeometry relative="1" as="geometry">
            <Array as="points">
              <mxPoint x="450" y="200" />
            </Array>
          </mxGeometry>
        </mxCell>
        <mxCell id="wfwWM39-e0iDr0dvzlDB-36" value="Kubelet&lt;span style=&quot;white-space: pre&quot;&gt;	&lt;/span&gt;" style="rounded=1;whiteSpace=wrap;html=1;fillColor=#d80073;strokeColor=#A50040;fontColor=#ffffff;" vertex="1" parent="1">
          <mxGeometry x="450" y="210" width="120" height="20" as="geometry" />
        </mxCell>
        <mxCell id="wfwWM39-e0iDr0dvzlDB-37" value="Kube-Proxy" style="rounded=1;whiteSpace=wrap;html=1;fillColor=#6a00ff;strokeColor=#3700CC;fontColor=#ffffff;" vertex="1" parent="1">
          <mxGeometry x="450" y="440" width="120" height="20" as="geometry" />
        </mxCell>
        <mxCell id="wfwWM39-e0iDr0dvzlDB-38" value="Kube-Proxy" style="rounded=1;whiteSpace=wrap;html=1;fillColor=#6a00ff;strokeColor=#3700CC;fontColor=#ffffff;" vertex="1" parent="1">
          <mxGeometry x="640" y="440" width="120" height="20" as="geometry" />
        </mxCell>
        <mxCell id="wfwWM39-e0iDr0dvzlDB-39" value="Kube -Proxy" style="rounded=1;whiteSpace=wrap;html=1;fillColor=#6a00ff;strokeColor=#3700CC;fontColor=#ffffff;" vertex="1" parent="1">
          <mxGeometry x="630" y="230" width="120" height="20" as="geometry" />
        </mxCell>
        <mxCell id="wfwWM39-e0iDr0dvzlDB-40" value="Kube -Proxy" style="rounded=1;whiteSpace=wrap;html=1;fillColor=#6a00ff;strokeColor=#3700CC;fontColor=#ffffff;" vertex="1" parent="1">
          <mxGeometry x="450" y="230" width="120" height="20" as="geometry" />
        </mxCell>
        <mxCell id="wfwWM39-e0iDr0dvzlDB-81" value="" style="edgeStyle=orthogonalEdgeStyle;rounded=0;orthogonalLoop=1;jettySize=auto;html=1;" edge="1" parent="1" source="wfwWM39-e0iDr0dvzlDB-42" target="wfwWM39-e0iDr0dvzlDB-80">
          <mxGeometry relative="1" as="geometry" />
        </mxCell>
        <mxCell id="wfwWM39-e0iDr0dvzlDB-42" value="Kubelet" style="rounded=1;whiteSpace=wrap;html=1;fillColor=#d80073;strokeColor=#A50040;fontColor=#ffffff;" vertex="1" parent="1">
          <mxGeometry x="640" y="420" width="120" height="20" as="geometry" />
        </mxCell>
        <mxCell id="wfwWM39-e0iDr0dvzlDB-43" value="Kubelet" style="rounded=1;whiteSpace=wrap;html=1;fillColor=#d80073;strokeColor=#A50040;fontColor=#ffffff;" vertex="1" parent="1">
          <mxGeometry x="450" y="420" width="120" height="20" as="geometry" />
        </mxCell>
        <mxCell id="wfwWM39-e0iDr0dvzlDB-48" value="" style="edgeStyle=orthogonalEdgeStyle;rounded=0;orthogonalLoop=1;jettySize=auto;html=1;exitX=0.5;exitY=0;exitDx=0;exitDy=0;entryX=0.903;entryY=0.99;entryDx=0;entryDy=0;entryPerimeter=0;endArrow=none;" edge="1" parent="1" source="wfwWM39-e0iDr0dvzlDB-42">
          <mxGeometry relative="1" as="geometry">
            <mxPoint x="700" y="400" as="sourcePoint" />
            <mxPoint x="694.1800000000001" y="379.4" as="targetPoint" />
          </mxGeometry>
        </mxCell>
        <mxCell id="wfwWM39-e0iDr0dvzlDB-50" value="Kubelet&lt;span style=&quot;white-space: pre&quot;&gt;	&lt;/span&gt;" style="rounded=1;whiteSpace=wrap;html=1;fillColor=#d80073;strokeColor=#A50040;fontColor=#ffffff;" vertex="1" parent="1">
          <mxGeometry x="630" y="210" width="120" height="20" as="geometry" />
        </mxCell>
        <mxCell id="wfwWM39-e0iDr0dvzlDB-66" value="" style="rounded=1;whiteSpace=wrap;html=1;" vertex="1" parent="1">
          <mxGeometry x="450" y="110" width="140" height="90" as="geometry" />
        </mxCell>
        <mxCell id="wfwWM39-e0iDr0dvzlDB-67" value="Container Runtime" style="whiteSpace=wrap;html=1;aspect=fixed;fillColor=#60a917;strokeColor=#2D7600;fontColor=#ffffff;" vertex="1" parent="1">
          <mxGeometry x="460" y="115" width="50" height="50" as="geometry" />
        </mxCell>
        <mxCell id="wfwWM39-e0iDr0dvzlDB-68" value="" style="whiteSpace=wrap;html=1;aspect=fixed;fillColor=#60a917;strokeColor=#2D7600;fontColor=#ffffff;" vertex="1" parent="1">
          <mxGeometry x="520" y="115" width="50" height="50" as="geometry" />
        </mxCell>
        <mxCell id="wfwWM39-e0iDr0dvzlDB-69" value="Pod -1" style="rounded=1;whiteSpace=wrap;html=1;fillColor=#1ba1e2;strokeColor=#006EAF;fontColor=#ffffff;" vertex="1" parent="1">
          <mxGeometry x="460" y="170" width="100" height="20" as="geometry" />
        </mxCell>
        <mxCell id="wfwWM39-e0iDr0dvzlDB-70" value="Container Runtime" style="whiteSpace=wrap;html=1;aspect=fixed;fillColor=#60a917;strokeColor=#2D7600;fontColor=#ffffff;" vertex="1" parent="1">
          <mxGeometry x="520" y="115" width="50" height="50" as="geometry" />
        </mxCell>
        <mxCell id="wfwWM39-e0iDr0dvzlDB-73" value="" style="rounded=1;whiteSpace=wrap;html=1;" vertex="1" parent="1">
          <mxGeometry x="625" y="100" width="140" height="100" as="geometry" />
        </mxCell>
        <mxCell id="wfwWM39-e0iDr0dvzlDB-74" value="Container Runtime" style="whiteSpace=wrap;html=1;aspect=fixed;fillColor=#60a917;strokeColor=#2D7600;fontColor=#ffffff;" vertex="1" parent="1">
          <mxGeometry x="700" y="110" width="50" height="50" as="geometry" />
        </mxCell>
        <mxCell id="wfwWM39-e0iDr0dvzlDB-75" value="Container Runtime" style="whiteSpace=wrap;html=1;aspect=fixed;fillColor=#60a917;strokeColor=#2D7600;fontColor=#ffffff;" vertex="1" parent="1">
          <mxGeometry x="630" y="110" width="50" height="50" as="geometry" />
        </mxCell>
        <mxCell id="wfwWM39-e0iDr0dvzlDB-77" value="Pod -2" style="rounded=1;whiteSpace=wrap;html=1;fillColor=#1ba1e2;strokeColor=#006EAF;fontColor=#ffffff;" vertex="1" parent="1">
          <mxGeometry x="640" y="170" width="100" height="20" as="geometry" />
        </mxCell>
        <mxCell id="wfwWM39-e0iDr0dvzlDB-79" value="" style="rounded=1;whiteSpace=wrap;html=1;" vertex="1" parent="1">
          <mxGeometry x="450" y="320" width="140" height="90" as="geometry" />
        </mxCell>
        <mxCell id="wfwWM39-e0iDr0dvzlDB-80" value="" style="rounded=1;whiteSpace=wrap;html=1;" vertex="1" parent="1">
          <mxGeometry x="635" y="320" width="140" height="90" as="geometry" />
        </mxCell>
        <mxCell id="wfwWM39-e0iDr0dvzlDB-82" value="Container Runtime" style="whiteSpace=wrap;html=1;aspect=fixed;fillColor=#60a917;strokeColor=#2D7600;fontColor=#ffffff;" vertex="1" parent="1">
          <mxGeometry x="700" y="330" width="50" height="50" as="geometry" />
        </mxCell>
        <mxCell id="wfwWM39-e0iDr0dvzlDB-83" value="Container Runtime" style="whiteSpace=wrap;html=1;aspect=fixed;fillColor=#60a917;strokeColor=#2D7600;fontColor=#ffffff;" vertex="1" parent="1">
          <mxGeometry x="640" y="330" width="50" height="50" as="geometry" />
        </mxCell>
        <mxCell id="wfwWM39-e0iDr0dvzlDB-84" value="Container Runtime" style="whiteSpace=wrap;html=1;aspect=fixed;fillColor=#60a917;strokeColor=#2D7600;fontColor=#ffffff;" vertex="1" parent="1">
          <mxGeometry x="520" y="330" width="50" height="50" as="geometry" />
        </mxCell>
        <mxCell id="wfwWM39-e0iDr0dvzlDB-85" value="Container Runtime" style="whiteSpace=wrap;html=1;aspect=fixed;fillColor=#60a917;strokeColor=#2D7600;fontColor=#ffffff;" vertex="1" parent="1">
          <mxGeometry x="460" y="330" width="50" height="50" as="geometry" />
        </mxCell>
        <mxCell id="wfwWM39-e0iDr0dvzlDB-86" value="Pod - 4" style="rounded=1;whiteSpace=wrap;html=1;fillColor=#1ba1e2;strokeColor=#006EAF;fontColor=#ffffff;" vertex="1" parent="1">
          <mxGeometry x="650" y="390" width="100" height="20" as="geometry" />
        </mxCell>
        <mxCell id="wfwWM39-e0iDr0dvzlDB-87" value="Pod -3" style="rounded=1;whiteSpace=wrap;html=1;fillColor=#1ba1e2;strokeColor=#006EAF;fontColor=#ffffff;" vertex="1" parent="1">
          <mxGeometry x="470" y="380" width="100" height="20" as="geometry" />
        </mxCell>
        <mxCell id="wfwWM39-e0iDr0dvzlDB-89" style="edgeStyle=orthogonalEdgeStyle;rounded=0;orthogonalLoop=1;jettySize=auto;html=1;entryX=0.832;entryY=0.064;entryDx=0;entryDy=0;entryPerimeter=0;startArrow=none;" edge="1" parent="1" source="wfwWM39-e0iDr0dvzlDB-92" target="wfwWM39-e0iDr0dvzlDB-20">
          <mxGeometry relative="1" as="geometry" />
        </mxCell>
        <mxCell id="wfwWM39-e0iDr0dvzlDB-94" style="edgeStyle=orthogonalEdgeStyle;rounded=0;orthogonalLoop=1;jettySize=auto;html=1;entryX=0.5;entryY=0;entryDx=0;entryDy=0;" edge="1" parent="1" source="wfwWM39-e0iDr0dvzlDB-88" target="wfwWM39-e0iDr0dvzlDB-92">
          <mxGeometry relative="1" as="geometry" />
        </mxCell>
        <mxCell id="wfwWM39-e0iDr0dvzlDB-88" value="User&amp;nbsp;" style="ellipse;whiteSpace=wrap;html=1;fillColor=#60a917;strokeColor=#2D7600;fontColor=#ffffff;" vertex="1" parent="1">
          <mxGeometry width="120" height="30" as="geometry" />
        </mxCell>
        <mxCell id="wfwWM39-e0iDr0dvzlDB-92" value="Kubectl Command Line Utility" style="ellipse;whiteSpace=wrap;html=1;gradientColor=#ffd966;fillColor=#fff2cc;strokeColor=#d6b656;" vertex="1" parent="1">
          <mxGeometry x="280" y="50" width="120" height="60" as="geometry" />
        </mxCell>
        <mxCell id="wfwWM39-e0iDr0dvzlDB-95" value="Kube DNS" style="ellipse;whiteSpace=wrap;html=1;" vertex="1" parent="1">
          <mxGeometry x="90" y="165" width="80" height="60" as="geometry" />
        </mxCell>
      </root>
    </mxGraphModel>
  </diagram>
</mxfile>
